<svg width="60" height="60" viewBox="0 0 60 60" fill="none" xmlns="http://www.w3.org/2000/svg">
<g id="Group 1611">
<g id="Group 1610">
<path id="Vector" d="M13.125 37.7357C13.4935 37.7357 13.8602 37.6931 14.2215 37.608C14.5845 37.5228 14.9368 37.3972 15.2764 37.2312C15.6178 37.063 15.9429 36.8586 16.25 36.6159C16.5571 36.3753 16.8407 36.0986 17.1026 35.7899C17.3627 35.4833 17.5957 35.147 17.8017 34.785C18.0076 34.4231 18.1792 34.0399 18.3219 33.6376C18.4628 33.2352 18.5694 32.82 18.6416 32.3921C18.7139 31.9642 18.75 31.532 18.75 31.0956C18.75 30.6592 18.7139 30.2291 18.6416 29.8012C18.5694 29.3733 18.4628 28.9582 18.3219 28.5558C18.1792 28.1534 18.0076 27.7702 17.8017 27.4083C17.5957 27.0443 17.3627 26.71 17.1026 26.4013C16.8407 26.0927 16.5571 25.818 16.25 25.5753C15.9429 25.3326 15.6178 25.1283 15.2764 24.9622C14.9368 24.7961 14.5845 24.6684 14.2215 24.5832C13.8602 24.5002 13.4935 24.4576 13.125 24.4576C12.7547 24.4576 12.3898 24.5002 12.0267 24.5832C11.6655 24.6684 11.3132 24.7961 10.9718 24.9622C10.6304 25.1283 10.3071 25.3326 10 25.5753C9.69292 25.818 9.40751 26.0927 9.1474 26.4013C8.88548 26.71 8.65246 27.0443 8.44834 27.4083C8.24241 27.7702 8.069 28.1534 7.92811 28.5558C7.78721 28.9582 7.67883 29.3733 7.60838 29.8012C7.53613 30.2291 7.5 30.6592 7.5 31.0956C7.5 31.532 7.53613 31.9642 7.60838 32.3921C7.67883 32.82 7.78721 33.2352 7.92811 33.6376C8.069 34.0399 8.24241 34.4231 8.44834 34.785C8.65246 35.147 8.88548 35.4833 9.1474 35.7899C9.40751 36.0986 9.69292 36.3753 10 36.6159C10.3071 36.8586 10.6304 37.063 10.9718 37.2312C11.3132 37.3972 11.6655 37.5228 12.0267 37.608C12.3898 37.6931 12.7547 37.7357 13.125 37.7357ZM13.125 26.6696C13.3707 26.6696 13.6145 26.6973 13.8566 26.7547C14.0968 26.8122 14.3316 26.8953 14.5592 27.006C14.7868 27.1188 15.0036 27.255 15.2077 27.4168C15.4118 27.5765 15.6015 27.7617 15.7767 27.9661C15.9501 28.1726 16.1055 28.3961 16.2428 28.6367C16.3801 28.8794 16.4957 29.1328 16.5896 29.4031C16.6835 29.6714 16.754 29.9481 16.8027 30.2334C16.8497 30.5187 16.875 30.8061 16.875 31.0956C16.875 31.3873 16.8497 31.6747 16.8027 31.96C16.754 32.2452 16.6835 32.522 16.5896 32.7902C16.4957 33.0585 16.3801 33.314 16.2428 33.5545C16.1055 33.7972 15.9501 34.0208 15.7767 34.2251C15.6015 34.4316 15.4118 34.6147 15.2077 34.7765C15.0036 34.9383 14.7868 35.0746 14.5592 35.1853C14.3316 35.296 14.0968 35.3811 13.8566 35.4365C13.6145 35.494 13.3707 35.5216 13.125 35.5216C12.8775 35.5216 12.6337 35.494 12.3934 35.4365C12.1514 35.3811 11.9165 35.296 11.6889 35.1853C11.4613 35.0746 11.2464 34.9383 11.0405 34.7765C10.8363 34.6147 10.6467 34.4316 10.4733 34.2251C10.298 34.0208 10.1427 33.7972 10.0072 33.5545C9.86994 33.314 9.75434 33.0585 9.6604 32.7902C9.56647 32.522 9.49422 32.2452 9.44725 31.96C9.39848 31.6747 9.375 31.3873 9.375 31.0956C9.375 30.8061 9.39848 30.5187 9.44725 30.2334C9.49422 29.9481 9.56647 29.6714 9.6604 29.4031C9.75434 29.1328 9.86994 28.8794 10.0072 28.6367C10.1427 28.3961 10.298 28.1726 10.4733 27.9661C10.6467 27.7617 10.8363 27.5765 11.0405 27.4168C11.2464 27.255 11.4613 27.1188 11.6889 27.006C11.9165 26.8953 12.1514 26.8122 12.3934 26.7547C12.6337 26.6973 12.8775 26.6696 13.125 26.6696Z" fill="white"/>
<path id="Vector_2" d="M46.875 37.7357C47.2435 37.7357 47.6102 37.6931 47.9715 37.608C48.3345 37.5228 48.6868 37.3972 49.0264 37.2312C49.3678 37.063 49.6929 36.8586 50 36.6159C50.3071 36.3753 50.5907 36.0986 50.8526 35.7899C51.1127 35.4833 51.3457 35.147 51.5517 34.785C51.7576 34.4231 51.9292 34.0399 52.0719 33.6376C52.2128 33.2352 52.3194 32.82 52.3916 32.3921C52.4639 31.9642 52.5 31.532 52.5 31.0956C52.5 30.6592 52.4639 30.2291 52.3916 29.8012C52.3194 29.3733 52.2128 28.9582 52.0719 28.5558C51.9292 28.1534 51.7576 27.7702 51.5517 27.4083C51.3457 27.0443 51.1127 26.71 50.8526 26.4013C50.5907 26.0927 50.3071 25.818 50 25.5753C49.6929 25.3326 49.3678 25.1283 49.0264 24.9622C48.6868 24.7961 48.3345 24.6684 47.9715 24.5832C47.6102 24.5002 47.2435 24.4576 46.875 24.4576C46.5047 24.4576 46.1398 24.5002 45.7767 24.5832C45.4155 24.6684 45.0632 24.7961 44.7218 24.9622C44.3804 25.1283 44.0571 25.3326 43.75 25.5753C43.4429 25.818 43.1575 26.0927 42.8974 26.4013C42.6355 26.71 42.4025 27.0443 42.1983 27.4083C41.9924 27.7702 41.819 28.1534 41.6781 28.5558C41.5372 28.9582 41.4288 29.3733 41.3584 29.8012C41.2861 30.2291 41.25 30.6592 41.25 31.0956C41.25 31.532 41.2861 31.9642 41.3584 32.3921C41.4288 32.82 41.5372 33.2352 41.6781 33.6376C41.819 34.0399 41.9924 34.4231 42.1983 34.785C42.4025 35.147 42.6355 35.4833 42.8974 35.7899C43.1575 36.0986 43.4429 36.3753 43.75 36.6159C44.0571 36.8586 44.3804 37.063 44.7218 37.2312C45.0632 37.3972 45.4155 37.5228 45.7767 37.608C46.1398 37.6931 46.5047 37.7357 46.875 37.7357ZM46.875 26.6696C47.1207 26.6696 47.3645 26.6973 47.6066 26.7547C47.8468 26.8122 48.0816 26.8953 48.3092 27.006C48.5368 27.1188 48.7536 27.255 48.9577 27.4168C49.1618 27.5765 49.3515 27.7617 49.5267 27.9661C49.7001 28.1726 49.8555 28.3961 49.9928 28.6367C50.1301 28.8794 50.2457 29.1328 50.3396 29.4031C50.4335 29.6714 50.504 29.9481 50.5527 30.2334C50.5997 30.5187 50.625 30.8061 50.625 31.0956C50.625 31.3873 50.5997 31.6747 50.5527 31.96C50.504 32.2452 50.4335 32.522 50.3396 32.7902C50.2457 33.0585 50.1301 33.314 49.9928 33.5545C49.8555 33.7972 49.7001 34.0208 49.5267 34.2251C49.3515 34.4316 49.1618 34.6147 48.9577 34.7765C48.7536 34.9383 48.5368 35.0746 48.3092 35.1853C48.0816 35.296 47.8468 35.3811 47.6066 35.4365C47.3645 35.494 47.1207 35.5216 46.875 35.5216C46.6275 35.5216 46.3837 35.494 46.1434 35.4365C45.9014 35.3811 45.6665 35.296 45.4389 35.1853C45.2113 35.0746 44.9964 34.9383 44.7905 34.7765C44.5863 34.6147 44.3967 34.4316 44.2233 34.2251C44.048 34.0208 43.8927 33.7972 43.7572 33.5545C43.6199 33.314 43.5043 33.0585 43.4104 32.7902C43.3165 32.522 43.2442 32.2452 43.1973 31.96C43.1485 31.6747 43.125 31.3873 43.125 31.0956C43.125 30.8061 43.1485 30.5187 43.1973 30.2334C43.2442 29.9481 43.3165 29.6714 43.4104 29.4031C43.5043 29.1328 43.6199 28.8794 43.7572 28.6367C43.8927 28.3961 44.048 28.1726 44.2233 27.9661C44.3967 27.7617 44.5863 27.5765 44.7905 27.4168C44.9964 27.255 45.2113 27.1188 45.4389 27.006C45.6665 26.8953 45.9014 26.8122 46.1434 26.7547C46.3837 26.6973 46.6275 26.6696 46.875 26.6696Z" fill="white"/>
<g id="Clip path group">
<mask id="mask0_1_324" style="mask-type:luminance" maskUnits="userSpaceOnUse" x="0" y="38" width="60" height="22">
<g id="f00e613430">
<path id="Vector_3" d="M0 38.4574H60V60H0V38.4574Z" fill="white"/>
</g>
</mask>
<g mask="url(#mask0_1_324)">
<g id="Group">
<path id="Vector_4" d="M59.0625 57.654H56.53C56.9599 57.0025 57.1785 56.2659 57.1875 55.4399V45.4808C57.1875 41.8191 54.2431 38.8428 50.625 38.8428H43.125C39.8808 38.8428 37.1803 41.2443 36.6655 44.3759H32.8125C32.5072 44.3738 32.2598 44.5143 32.0719 44.7953C31.884 45.0806 31.828 45.3978 31.9021 45.7469L34.4238 57.654H25.5744L28.125 45.7469C28.1991 45.3978 28.1431 45.0806 27.9552 44.7953C27.7601 44.5015 27.5036 44.3631 27.1875 44.3759H23.3345C22.8179 41.2443 20.1174 38.8428 16.875 38.8428H9.375C5.75506 38.8428 2.8125 41.8191 2.8125 45.4808V55.4399C2.82153 56.2659 3.0401 57.0025 3.46821 57.654H0.9375C0.812861 57.654 0.693642 57.6817 0.578035 57.7391C0.464234 57.7945 0.361272 57.8754 0.274566 57.9776C0.186055 58.0819 0.11922 58.2011 0.070448 58.3374C0.0234824 58.4736 0 58.6141 0 58.761C0 58.9079 0.0234824 59.0484 0.070448 59.1847C0.11922 59.3188 0.186055 59.4401 0.274566 59.5423C0.361272 59.6467 0.464234 59.7276 0.578035 59.7829C0.693642 59.8383 0.812861 59.8681 0.9375 59.8681H59.0625C59.1871 59.8681 59.3064 59.8383 59.4202 59.7829C59.5358 59.7276 59.6369 59.6467 59.7254 59.5423C59.8121 59.4401 59.8808 59.3188 59.9277 59.1847C59.9765 59.0484 60 58.9079 60 58.761C60 58.6141 59.9765 58.4736 59.9277 58.3374C59.8808 58.2011 59.8121 58.0819 59.7254 57.9776C59.6369 57.8754 59.5358 57.7945 59.4202 57.7391C59.3064 57.6817 59.1871 57.654 59.0625 57.654ZM15.9375 57.654H7.5C5.97182 57.654 4.6875 56.6364 4.6875 55.4399V45.4808C4.6875 43.0368 6.78649 41.0548 9.375 41.0548H16.875C17.3501 41.0228 17.8197 41.0761 18.2803 41.2145C18.7428 41.3528 19.1763 41.5721 19.5809 41.868C19.9855 42.1661 20.3414 42.528 20.6521 42.9559C20.961 43.3838 21.2085 43.8564 21.3927 44.3759H14.0625C13.9541 44.3716 13.8512 44.3887 13.7482 44.427C13.647 44.4653 13.5531 44.5228 13.4682 44.5994C13.3815 44.6761 13.3092 44.7676 13.2514 44.8741C13.1918 44.9784 13.1503 45.0933 13.125 45.2168L11.4559 53.228H9.375V49.909C9.375 49.7621 9.35152 49.6194 9.30275 49.4853C9.25578 49.3491 9.18714 49.2298 9.10043 49.1255C9.01192 49.0212 8.91077 48.9424 8.79516 48.885C8.68136 48.8296 8.56214 48.8019 8.4375 48.8019C8.31286 48.8019 8.19364 48.8296 8.07803 48.885C7.96423 48.9424 7.86127 49.0212 7.77457 49.1255C7.68605 49.2298 7.61922 49.3491 7.57045 49.4853C7.52348 49.6194 7.5 49.7621 7.5 49.909V54.335C7.5 54.4819 7.52348 54.6224 7.57045 54.7586C7.61922 54.8928 7.68605 55.012 7.77457 55.1163C7.86127 55.2206 7.96423 55.3015 8.07803 55.3569C8.19364 55.4122 8.31286 55.4399 8.4375 55.4399H18.591C18.4935 55.7656 18.3562 56.0637 18.181 56.3383C18.0058 56.6108 17.7999 56.8471 17.5614 57.0451C17.3248 57.2431 17.0665 57.3943 16.7901 57.4986C16.5119 57.6029 16.2283 57.654 15.9375 57.654ZM23.6434 57.654H19.6875C20.3179 56.6725 20.6304 55.5655 20.625 54.335C20.625 54.1881 20.6015 54.0455 20.5527 53.9113C20.5058 53.7751 20.4371 53.6559 20.3504 53.5515C20.2619 53.4472 20.1608 53.3685 20.0452 53.311C19.9314 53.2556 19.8121 53.228 19.6875 53.228H13.3869L14.7941 46.5878H25.9863L23.6434 57.654ZM36.3566 57.654L34.0119 46.5878H45.2059L46.6113 53.228H40.3125C40.1879 53.228 40.0686 53.2556 39.953 53.311C39.8392 53.3685 39.7363 53.4472 39.6496 53.5515C39.5611 53.6559 39.4942 53.7751 39.4454 53.9113C39.3985 54.0455 39.375 54.1881 39.375 54.335C39.3696 55.5655 39.6821 56.6725 40.3125 57.654H36.3566ZM55.3125 55.4399C55.3125 56.6364 54.0282 57.654 52.5 57.654H44.0625C43.7717 57.654 43.4863 57.6029 43.2099 57.4986C42.9317 57.3943 42.6752 57.2431 42.4368 57.0451C42.2001 56.8471 41.9924 56.6108 41.8172 56.3383C41.642 56.0637 41.5065 55.7656 41.409 55.4399H51.5625C51.6871 55.4399 51.8064 55.4122 51.9202 55.3569C52.0358 55.3015 52.1369 55.2206 52.2254 55.1163C52.3121 55.012 52.3808 54.8928 52.4277 54.7586C52.4765 54.6224 52.5 54.4819 52.5 54.335V49.909C52.5 49.7621 52.4765 49.6194 52.4277 49.4853C52.3808 49.3491 52.3121 49.2298 52.2254 49.1255C52.1369 49.0212 52.0358 48.9424 51.9202 48.885C51.8064 48.8296 51.6871 48.8019 51.5625 48.8019C51.4379 48.8019 51.3186 48.8296 51.203 48.885C51.0892 48.9424 50.9863 49.0212 50.8996 49.1255C50.8111 49.2298 50.7442 49.3491 50.6954 49.4853C50.6485 49.6194 50.625 49.7621 50.625 49.909V53.228H48.5441L46.875 45.2168C46.8497 45.0933 46.8064 44.9784 46.7486 44.8741C46.6889 44.7676 46.6167 44.6761 46.5318 44.5994C46.4469 44.5228 46.353 44.4653 46.25 44.427C46.1488 44.3887 46.0441 44.3716 45.9375 44.3759H38.6055C38.7915 43.8564 39.039 43.3838 39.3479 42.9559C39.6568 42.528 40.0145 42.1661 40.4191 41.868C40.8237 41.5721 41.2572 41.3528 41.7178 41.2145C42.1803 41.0761 42.6481 41.0228 43.125 41.0548H50.625C53.2117 41.0548 55.3125 43.0368 55.3125 45.4808V55.4399Z" fill="white"/>
</g>
</g>
</g>
<path id="Vector_5" d="M43 10.5724C43 10.2921 42.9871 10.0118 42.9594 9.73142C42.9317 9.45293 42.891 9.17626 42.8356 8.8996C42.7802 8.62477 42.7119 8.3536 42.6288 8.08426C42.5476 7.81493 42.4515 7.55109 42.3444 7.29274C42.2355 7.03257 42.1154 6.77972 41.9825 6.53237C41.8495 6.28503 41.7036 6.04317 41.5466 5.81048C41.3897 5.57779 41.2216 5.35243 41.0425 5.13439C40.8634 4.91819 40.675 4.70932 40.4737 4.51144C40.2743 4.31356 40.0656 4.12484 39.8477 3.94712C39.6279 3.76939 39.4026 3.60083 39.1681 3.44509C38.9317 3.28935 38.6898 3.14461 38.4405 3.01269C38.1912 2.88077 37.9363 2.76167 37.6759 2.65357C37.4155 2.54547 37.1496 2.45203 36.8782 2.36958C36.6085 2.28896 36.3352 2.22117 36.0582 2.1662C35.7812 2.11124 35.5024 2.0691 35.2198 2.04161C34.9391 2.01413 34.6566 2.0013 34.374 2.0013C33.4451 2.0013 32.5421 2.14971 31.663 2.44836C31.4433 2.23583 31.2143 2.03428 30.9724 1.84557C30.7323 1.65685 30.483 1.48095 30.2226 1.31972C29.9641 1.15665 29.6963 1.00824 29.4211 0.874491C29.146 0.740739 28.8653 0.621646 28.5772 0.517209C28.2891 0.412773 27.9955 0.322994 27.6982 0.251538C27.4008 0.178249 27.0998 0.119618 26.797 0.0793093C26.4922 0.0371682 26.1875 0.0115178 25.881 0.00418844C25.5744 -0.00497253 25.2679 0.000524121 24.9632 0.0243428C24.6566 0.0481615 24.3538 0.0884701 24.0527 0.143437C23.7499 0.198403 23.4526 0.26986 23.1589 0.357806C22.8653 0.44392 22.5772 0.546524 22.2947 0.663786C22.0121 0.781048 21.737 0.9148 21.4673 1.06138C21.1996 1.20795 20.9392 1.36736 20.688 1.54325C20.4369 1.71731 20.195 1.9042 19.9641 2.10391C19.7333 2.30362 19.5117 2.51616 19.303 2.73785C19.0962 2.96139 18.8986 3.19591 18.7157 3.43959C18.5329 3.68328 18.363 3.93612 18.2061 4.19813C18.0491 4.46014 17.9069 4.72947 17.7795 5.00614C17.652 5.28464 17.5412 5.5668 17.4434 5.85629C17.3455 6.14578 17.2642 6.43893 17.1996 6.73575C17.1331 7.03257 17.0833 7.33305 17.05 7.63537C17.0168 7.93952 17.0002 8.24183 17.0002 8.54781C16.9983 8.85196 17.0131 9.15611 17.0463 9.45842C17.0777 9.76074 17.1257 10.0612 17.1885 10.3599C17.2532 10.6585 17.3326 10.9517 17.4286 11.2412C17.5246 11.5307 17.6354 11.8147 17.761 12.0913C17.8866 12.3698 18.0269 12.6392 18.182 12.903C18.3372 13.165 18.5052 13.4197 18.688 13.6634C18.869 13.9089 19.0648 14.1434 19.2716 14.3688C19.4784 14.5923 19.6982 14.8048 19.929 15.0064C20.158 15.2079 20.3981 15.3966 20.6493 15.5725C20.8986 15.7484 21.1589 15.9097 21.4267 16.0581L21.0038 19.0098C20.9724 19.1948 20.9946 19.3744 21.0685 19.5466C21.1442 19.7188 21.2587 19.8581 21.4175 19.9625C21.5782 20.0706 21.7573 20.1256 21.953 20.1238C22.1248 20.1256 22.2836 20.0834 22.4332 20.001L27.5504 17.0859C27.8754 17.0163 28.1949 16.9284 28.5089 16.8203C29.676 17.9251 31.0462 18.6488 32.6215 18.9914L37.7203 21.8772C37.868 21.9596 38.0287 22.0018 38.1986 21.9999C38.3943 22.0018 38.5734 21.9468 38.7359 21.8387C38.8929 21.7343 39.0093 21.595 39.0831 21.4228C39.1588 21.2506 39.1792 21.071 39.1478 20.886L38.7267 17.9343C39.3731 17.5587 39.9622 17.1061 40.4903 16.5784C41.0203 16.0489 41.4709 15.4626 41.8458 14.8158C42.2207 14.1709 42.5069 13.4893 42.7027 12.7692C42.8984 12.0492 42.9982 11.3181 43 10.5724ZM26.9946 15.2189C26.8911 15.2427 26.7914 15.2775 26.6972 15.3252L23.1423 17.3534L23.3436 15.6678C23.3639 15.4681 23.3233 15.2812 23.2254 15.1071C23.1275 14.9331 22.9872 14.8012 22.8062 14.7151C22.5698 14.6015 22.339 14.475 22.1174 14.334C21.8939 14.1947 21.6816 14.0408 21.4766 13.8759C21.2716 13.711 21.0777 13.5333 20.8949 13.3464C20.712 13.1577 20.5403 12.9598 20.3796 12.7509C20.2208 12.5439 20.0731 12.3258 19.9401 12.1023C19.8053 11.8769 19.6853 11.6443 19.5782 11.4042C19.4711 11.1642 19.3787 10.9205 19.3012 10.6695C19.2236 10.4203 19.1608 10.1657 19.1146 9.90915C19.0666 9.65081 19.0352 9.39063 19.0186 9.13046C19.002 8.86845 19.0001 8.60827 19.0149 8.34627C19.0278 8.08426 19.0574 7.82409 19.1036 7.56758C19.1479 7.30923 19.2088 7.05456 19.2827 6.80354C19.3584 6.55253 19.4489 6.30701 19.5523 6.06699C19.6576 5.82697 19.7758 5.59245 19.9069 5.36708C20.0398 5.13989 20.1839 4.92186 20.3427 4.71115C20.4997 4.50228 20.6696 4.30257 20.8524 4.11385C21.0334 3.9233 21.2254 3.74557 21.4286 3.57701C21.6299 3.41028 21.8422 3.25637 22.0638 3.11346C22.2854 2.97055 22.5126 2.84229 22.749 2.72686C22.9853 2.6096 23.2291 2.50883 23.4766 2.42088C23.7259 2.33477 23.9789 2.26148 24.2356 2.20468C24.4923 2.14605 24.7508 2.10391 25.013 2.07642C25.2753 2.04894 25.5393 2.03795 25.8016 2.04161C26.0657 2.04528 26.3279 2.0636 26.5883 2.09658C26.8505 2.13139 27.1091 2.18086 27.3639 2.24499C27.6187 2.30912 27.8699 2.3879 28.1155 2.48318C28.3611 2.57662 28.6012 2.68472 28.8357 2.80565C29.0684 2.92841 29.2937 3.06216 29.5098 3.21057C29.7277 3.35898 29.9364 3.52021 30.134 3.69244C30.3316 3.86467 30.5199 4.04789 30.6954 4.2421C30.8726 4.43632 31.037 4.64153 31.1884 4.85406C31.3417 5.06843 31.4802 5.29013 31.6058 5.51916C31.7314 5.75002 31.844 5.98637 31.9419 6.23006C32.0398 6.47191 32.1229 6.72109 32.1912 6.97394C32.2595 7.22495 32.3131 7.48146 32.3519 7.74164C32.3906 7.99998 32.4128 8.26015 32.4202 8.52216C32.4276 8.78417 32.4183 9.04434 32.3962 9.30635C32.3722 9.56652 32.3334 9.82487 32.278 10.0814C32.2244 10.3379 32.1543 10.5889 32.0712 10.8381C31.9862 11.0854 31.8883 11.3273 31.7757 11.5636C31.6612 11.8 31.5356 12.0309 31.3953 12.2526C31.2549 12.4743 31.1016 12.6868 30.9373 12.8902C30.7711 13.0935 30.5956 13.2878 30.4073 13.471C30.2189 13.6542 30.0195 13.8246 29.8108 13.9858C29.6021 14.1452 29.386 14.2918 29.1589 14.4274C28.9336 14.5611 28.7009 14.6821 28.459 14.7883C28.2189 14.8964 27.9733 14.9899 27.7222 15.0668C27.471 15.1456 27.2162 15.2097 26.9558 15.2574L26.9946 15.2189ZM37.2789 16.5821C37.0979 16.6682 36.9576 16.8001 36.8597 16.9742C36.7618 17.1482 36.723 17.3351 36.7415 17.5348L36.9816 19.2205L33.4266 17.238C33.3306 17.1904 33.2327 17.1556 33.1293 17.1336C32.1155 16.9375 31.1995 16.5271 30.3777 15.906C30.616 15.7539 30.8468 15.5927 31.0702 15.4186C31.2937 15.2446 31.5061 15.0595 31.7111 14.8653C31.916 14.6711 32.1099 14.4677 32.2946 14.2533C32.4774 14.0408 32.651 13.8173 32.8135 13.5882C32.9761 13.3574 33.1256 13.1192 33.2641 12.8737C33.4026 12.6282 33.5301 12.3771 33.6427 12.1188C33.7572 11.8623 33.8569 11.6003 33.9456 11.3328C34.0324 11.0653 34.1081 10.7941 34.1672 10.5193C34.2281 10.2444 34.2761 9.96778 34.3094 9.68745C34.3426 9.40895 34.3629 9.12862 34.3685 8.84646C34.374 8.56613 34.3648 8.28397 34.3426 8.00364C34.3205 7.72332 34.2854 7.44482 34.2355 7.16815C34.1856 6.89149 34.121 6.61849 34.0453 6.34732C33.9677 6.07615 33.8772 5.81048 33.7738 5.54847C33.6704 5.28647 33.5559 5.02996 33.4266 4.77894C33.2974 4.52976 33.157 4.28608 33.0038 4.04789C33.4562 3.95261 33.9123 3.90498 34.374 3.90498C34.7507 3.90681 35.1256 3.93979 35.4968 4.00392C35.868 4.06804 36.2318 4.16332 36.5864 4.28791C36.9409 4.41433 37.2844 4.56641 37.6131 4.74963C37.9419 4.93285 38.254 5.13989 38.5476 5.37441C38.8412 5.60894 39.1127 5.86728 39.3638 6.14578C39.6131 6.42611 39.8384 6.72476 40.0379 7.04356C40.2373 7.36054 40.4091 7.69217 40.5513 8.03846C40.6953 8.38474 40.808 8.74203 40.8911 9.10664C40.9742 9.47125 41.0259 9.84136 41.0443 10.2151C41.0646 10.5889 41.0536 10.9627 41.0111 11.3346C40.9686 11.7066 40.8929 12.0712 40.7895 12.4303C40.6842 12.7912 40.5494 13.1393 40.3851 13.4765C40.2207 13.8136 40.0286 14.1342 39.8107 14.4384C39.5928 14.7444 39.3491 15.0284 39.0831 15.294C38.8154 15.5579 38.5291 15.7979 38.2207 16.0141C37.9142 16.2303 37.5891 16.419 37.2493 16.5821H37.2789Z" fill="white"/>
<path id="Vector_6" d="M23.5723 9.41135C23.5723 9.54476 23.5466 9.67177 23.4965 9.79493C23.4451 9.9168 23.3732 10.0258 23.2794 10.1195C23.1856 10.2131 23.0777 10.285 22.9544 10.3363C22.8324 10.3863 22.7052 10.412 22.5716 10.412C22.4393 10.412 22.3122 10.3863 22.1901 10.3363C22.0668 10.285 21.9589 10.2131 21.8651 10.1195C21.7714 10.0258 21.6994 9.9168 21.6481 9.79493C21.598 9.67177 21.5723 9.54476 21.5723 9.41135C21.5723 9.27921 21.598 9.15221 21.6481 9.02905C21.6994 8.90589 21.7714 8.79813 21.8651 8.70448C21.9589 8.61083 22.0668 8.53899 22.1901 8.48768C22.3122 8.43636 22.4393 8.41199 22.5716 8.41199C22.7052 8.41199 22.8324 8.43636 22.9544 8.48768C23.0777 8.53899 23.1856 8.61083 23.2794 8.70448C23.3732 8.79813 23.4451 8.90589 23.4965 9.02905C23.5466 9.15221 23.5723 9.27921 23.5723 9.41135Z" fill="white"/>
<path id="Vector_7" d="M26.3848 9.41135C26.3848 9.54476 26.3591 9.67177 26.309 9.79493C26.2576 9.9168 26.1857 10.0258 26.0919 10.1195C25.9981 10.2131 25.8902 10.285 25.7669 10.3363C25.6449 10.3863 25.5177 10.412 25.3841 10.412C25.2518 10.412 25.1247 10.3863 25.0026 10.3363C24.8793 10.285 24.7714 10.2131 24.6776 10.1195C24.5839 10.0258 24.5119 9.9168 24.4606 9.79493C24.4105 9.67177 24.3848 9.54476 24.3848 9.41135C24.3848 9.27921 24.4105 9.15221 24.4606 9.02905C24.5119 8.90589 24.5839 8.79813 24.6776 8.70448C24.7714 8.61083 24.8793 8.53899 25.0026 8.48768C25.1247 8.43636 25.2518 8.41199 25.3841 8.41199C25.5177 8.41199 25.6449 8.43636 25.7669 8.48768C25.8902 8.53899 25.9981 8.61083 26.0919 8.70448C26.1857 8.79813 26.2576 8.90589 26.309 9.02905C26.3591 9.15221 26.3848 9.27921 26.3848 9.41135Z" fill="white"/>
<path id="Vector_8" d="M29.1973 9.41135C29.1973 9.54476 29.1716 9.67177 29.1215 9.79493C29.0701 9.9168 28.9982 10.0258 28.9044 10.1195C28.8106 10.2131 28.7027 10.285 28.5794 10.3363C28.4574 10.3863 28.3302 10.412 28.1966 10.412C28.0643 10.412 27.9371 10.3863 27.8151 10.3363C27.6918 10.285 27.5839 10.2131 27.4901 10.1195C27.3964 10.0258 27.3244 9.9168 27.2731 9.79493C27.223 9.67177 27.1973 9.54476 27.1973 9.41135C27.1973 9.27921 27.223 9.15221 27.2731 9.02905C27.3244 8.90589 27.3964 8.79813 27.4901 8.70448C27.5839 8.61083 27.6918 8.53899 27.8151 8.48768C27.9371 8.43636 28.0643 8.41199 28.1966 8.41199C28.3302 8.41199 28.4574 8.43636 28.5794 8.48768C28.7027 8.53899 28.8106 8.61083 28.9044 8.70448C28.9982 8.79813 29.0701 8.90589 29.1215 9.02905C29.1716 9.15221 29.1973 9.27921 29.1973 9.41135Z" fill="white"/>
</g>
</g>
</svg>
