<svg width="60" height="60" viewBox="0 0 60 60" fill="none" xmlns="http://www.w3.org/2000/svg">
<g id="Group 1608">
<path id="Vector" d="M5.99901 54.001H4.00098V56.0015H5.99901V54.001Z" fill="white"/>
<path id="Vector_2" d="M10 54.001H7.99951V56.0015H10V54.001Z" fill="white"/>
<path id="Vector_3" d="M14.001 54.001H12.0005V56.0015H14.001V54.001Z" fill="white"/>
<path id="Vector_4" d="M37.9995 54.001H35.999V56.0015H37.9995V54.001Z" fill="white"/>
<path id="Vector_5" d="M42.0005 54.001H40V56.0015H42.0005V54.001Z" fill="white"/>
<path id="Vector_6" d="M45.999 54.001H44.001V56.0015H45.999V54.001Z" fill="white"/>
<path id="Vector_7" d="M54.001 54.001H52.0005V56.0015H54.001V54.001Z" fill="white"/>
<g id="Clip path group">
<mask id="mask0_1_299" style="mask-type:luminance" maskUnits="userSpaceOnUse" x="0" y="14" width="60" height="46">
<g id="fd38307f31">
<path id="Vector_8" d="M0 14.3774H60V60H0V14.3774Z" fill="white"/>
</g>
</mask>
<g mask="url(#mask0_1_299)">
<g id="Group">
<path id="Vector_9" d="M57.0005 50H50V48.002H57.0005C57.5517 48.002 57.9995 48.4498 57.9995 49.001C57.9995 49.5522 57.5517 50 57.0005 50ZM55.999 58.002H50V52.0005H55.999V58.002ZM50 44.001H55.999V46.0015H50V44.001ZM47.9995 50H34.001V43.5876L47.9995 35.7111V50ZM47.9995 58.002H34.001V52.0005H47.9995V58.002ZM33.5039 33.1373C33.1988 32.9577 32.8199 32.9577 32.5123 33.1299L30.3912 34.3209L30.6988 25H37.3007L37.7731 39.1683L34.001 41.2894V34.001C34.001 33.6442 33.8115 33.3169 33.5039 33.1373ZM32.0005 43.002V47.0005H17.9995V43.5876L32.0005 35.7111V43.002ZM32.0005 58.002H27.9995V54.001C27.9995 53.4498 27.5517 53.002 27.0005 53.002H22.9995C22.4483 53.002 22.0005 53.4498 22.0005 54.001V58.002H17.9995V49.001H32.0005V58.002ZM25.999 58.002H24.001V55H25.999V58.002ZM17.5049 33.1373C17.1998 32.9577 16.8209 32.9577 16.5108 33.1299L13.3711 34.8942L13.6983 25H20.3002L20.7899 39.7195L17.9995 41.2894V34.001C17.9995 33.6442 17.8125 33.3169 17.5049 33.1373ZM15.999 43.002V50H2.00049V43.5876L15.999 35.7111V43.002ZM15.999 58.002H2.00049V52.0005H15.999V58.002ZM13.8361 21.0015H20.1649L20.1919 21.72L20.2338 23.002H13.7697L13.8361 21.0015ZM13.969 17.0005H20.032L20.0984 19.001H13.9026L13.969 17.0005ZM30.8292 21.1934L30.8366 21.0015H37.1629L37.1801 21.4542L37.2343 23.002H30.7653L30.8292 21.1934ZM30.9695 17.0005H37.03L37.0965 19.001H30.9031L30.9695 17.0005ZM57.9995 46.1836V43.002C57.9995 42.4508 57.5517 42.0005 57.0005 42.0005H50V34.001C50 33.6442 49.813 33.3169 49.503 33.1373C49.2003 32.9577 48.8214 32.9577 48.5113 33.1299L39.7343 38.0635L39.001 15.9695C38.9813 15.4257 38.5384 15 37.9995 15H30C29.4611 15 29.0207 15.4257 29.001 15.9695L28.3514 35.47L22.7534 38.6171L22.0005 15.9695C21.9808 15.4257 21.5379 15 20.999 15H12.9995C12.4606 15 12.0202 15.4257 12.0005 15.9695L11.7347 23.969L11.3312 36.0409L0.511811 42.1309C0.19439 42.3056 0 42.6403 0 43.002V59.001C0 59.5522 0.450295 60 0.999016 60H57.0005C57.5517 60 57.9995 59.5522 57.9995 59.001V51.8184C59.1609 51.4026 60 50.3027 60 49.001C60 47.6993 59.1609 46.5994 57.9995 46.1836Z" fill="white"/>
</g>
</g>
</g>
<g id="Clip path group_2">
<mask id="mask1_1_299" style="mask-type:luminance" maskUnits="userSpaceOnUse" x="28" y="0" width="24" height="14">
<g id="e53697836c">
<path id="Vector_10" d="M28.9762 0H51.0235V13.1176H28.9762V0Z" fill="white"/>
</g>
</mask>
<g mask="url(#mask1_1_299)">
<g id="Group_2">
<path id="Vector_11" d="M30.9991 9.00099C30.9991 7.34498 32.3426 6.00148 34.0011 6.00148H37.0006C37.5518 6.00148 37.9996 5.55118 37.9996 5C37.9996 3.344 39.3431 2.00049 40.9991 2.00049H49.0011V4.00099C49.0011 5.65699 47.6551 7.00049 45.9991 7.00049H42.9996C42.4484 7.00049 42.0006 7.45079 42.0006 8.00197C42.0006 9.65798 40.6571 11.0015 39.0011 11.0015H30.9991V9.00099ZM30.0001 13.002H39.0011C41.4149 13.002 43.4327 11.282 43.8977 9.00099H45.9991C48.7575 9.00099 50.9991 6.75935 50.9991 4.00099V1.00148C50.9991 0.450295 50.5513 0 50.0001 0H40.9991C38.5852 0 36.5675 1.71998 36.1024 4.00099H34.0011C31.2427 4.00099 29.0011 6.24262 29.0011 9.00099V12.0005C29.0011 12.5517 29.4489 13.002 30.0001 13.002Z" fill="white"/>
</g>
</g>
</g>
<g id="Clip path group_3">
<mask id="mask2_1_299" style="mask-type:luminance" maskUnits="userSpaceOnUse" x="11" y="0" width="18" height="14">
<g id="574243da40">
<path id="Vector_12" d="M11.9684 0H28.3463V13.1176H11.9684V0Z" fill="white"/>
</g>
</mask>
<g mask="url(#mask2_1_299)">
<g id="Group_3">
<path id="Vector_13" d="M14.001 10C14.001 8.344 15.3445 7.00049 17.0005 7.00049C17.5517 7.00049 17.9995 6.55266 17.9995 6.00148V5C17.9995 3.344 19.343 2.00049 20.999 2.00049H25.999V3.00197C25.999 4.65797 24.6555 6.00148 22.9995 6.00148C22.4484 6.00148 22.0005 6.44931 22.0005 7.00049V8.00197C22.0005 9.65798 20.657 11.0015 19.001 11.0015H14.001V10ZM12.9995 13.002H19.001C21.7569 13.002 24.001 10.7579 24.001 8.00197V7.89862C26.282 7.43357 27.9995 5.41585 27.9995 3.00197V1.00148C27.9995 0.450295 27.5517 0 27.0005 0H20.999C18.2431 0 15.999 2.2441 15.999 5V5.10335C13.718 5.56841 12.0005 7.58612 12.0005 10V12.0005C12.0005 12.5517 12.4484 13.002 12.9995 13.002Z" fill="white"/>
</g>
</g>
</g>
</g>
</svg>
