<svg width="60" height="60" viewBox="0 0 60 60" fill="none" xmlns="http://www.w3.org/2000/svg">
<g id="Group 1657">
<g id="Clip path group">
<mask id="mask0_1_255" style="mask-type:luminance" maskUnits="userSpaceOnUse" x="27" y="43" width="34" height="17">
<g id="715743aac3">
<path id="Vector" d="M27.7031 43.887H60.0006V60H27.7031V43.887Z" fill="white"/>
</g>
</mask>
<g mask="url(#mask0_1_255)">
<g id="Group">
<path id="Vector_2" d="M57.3133 50.2392C57.7454 49.5988 58 48.8291 58 47.9996C58 45.7928 56.206 43.9988 54.0012 43.9988C51.7944 43.9988 50.0004 45.7928 50.0004 47.9996C50.0004 48.8291 50.255 49.5988 50.6871 50.2392C49.5413 50.6404 48.6404 51.5413 48.2392 52.6871C47.9556 52.4942 47.6412 52.3534 47.3113 52.2396C47.7454 51.5991 48 50.8295 48 50C48 47.7932 46.206 45.9992 44.0012 45.9992C41.7944 45.9992 40.0004 47.7932 40.0004 50C40.0004 50.8295 40.255 51.5991 40.6871 52.2396C40.3592 52.3534 40.0428 52.4942 39.7612 52.6871C39.358 51.5413 38.4591 50.6404 37.3113 50.2392C37.7454 49.5988 38 48.8291 38 47.9996C38 45.7928 36.206 43.9988 34.0012 43.9988C31.7944 43.9988 30.0004 45.7928 30.0004 47.9996C30.0004 48.8291 30.255 49.5988 30.6871 50.2392C29.1285 50.7851 28 52.255 28 53.9988V57.0004C28 57.5521 28.4475 57.9996 29.0012 57.9996H38V58.9988C38 59.5525 38.4475 60 39.0012 60H49.0012C49.5529 60 50.0004 59.5525 50.0004 58.9988V57.9996H59.0012C59.5529 57.9996 60.0004 57.5521 60.0004 57.0004V53.9988C60.0004 52.255 58.8719 50.7851 57.3133 50.2392ZM54.0012 45.9992C55.1026 45.9992 55.9996 46.8962 55.9996 47.9996C55.9996 49.103 55.1026 50 54.0012 50C52.8978 50 52.0008 49.103 52.0008 47.9996C52.0008 46.8962 52.8978 45.9992 54.0012 45.9992ZM44.0012 47.9996C45.1026 47.9996 45.9996 48.8966 45.9996 50C45.9996 51.1034 45.1026 52.0004 44.0012 52.0004C42.8978 52.0004 42.0008 51.1034 42.0008 50C42.0008 48.8966 42.8978 47.9996 44.0012 47.9996ZM34.0012 45.9992C35.1026 45.9992 35.9996 46.8962 35.9996 47.9996C35.9996 49.103 35.1026 50 34.0012 50C32.8978 50 32.0008 49.103 32.0008 47.9996C32.0008 46.8962 32.8978 45.9992 34.0012 45.9992ZM30.0004 55.9992V53.9988C30.0004 52.8974 30.8974 52.0004 32.0008 52.0004H35.9996C37.103 52.0004 38 52.8974 38 53.9988V55.9992H30.0004ZM48 57.9996H40.0004V55.9992C40.0004 54.8958 40.8974 53.9988 42.0008 53.9988H45.9996C47.103 53.9988 48 54.8958 48 55.9992V57.9996ZM58 55.9992H50.0004V53.9988C50.0004 52.8974 50.8974 52.0004 52.0008 52.0004H55.9996C57.103 52.0004 58 52.8974 58 53.9988V55.9992Z" fill="white"/>
</g>
</g>
</g>
<g id="Clip path group_2">
<mask id="mask1_1_255" style="mask-type:luminance" maskUnits="userSpaceOnUse" x="0" y="20" width="32" height="27">
<g id="477123a4b4">
<path id="Vector_3" d="M0 20.6771H31.1593V46.3561H0V20.6771Z" fill="white"/>
</g>
</mask>
<g mask="url(#mask1_1_255)">
<g id="Group_2">
<path id="Vector_4" d="M0.999228 42.9996H4.14159C4.58912 44.7203 6.14005 45.9992 7.99961 45.9992C9.85918 45.9992 11.4101 44.7203 11.8576 42.9996H20.1427C20.5883 44.7203 22.1412 45.9992 24.0008 45.9992C25.8584 45.9992 27.4113 44.7203 27.8588 42.9996H30C30.5536 42.9996 30.9992 42.552 30.9992 42.0004V32.9996C30.9992 32.7334 30.8951 32.4788 30.706 32.2936L25.706 27.2936C25.5189 27.1045 25.2662 27.0004 25 27.0004H20V22.0004C20 21.4467 19.5525 20.9992 19.0008 20.9992H0.999228C0.447531 20.9992 0 21.4467 0 22.0004V42.0004C0 42.552 0.447531 42.9996 0.999228 42.9996ZM7.99961 43.9988C6.89622 43.9988 5.99923 43.1018 5.99923 42.0004C5.99923 40.897 6.89622 40 7.99961 40C9.10301 40 10 40.897 10 42.0004C10 43.1018 9.10301 43.9988 7.99961 43.9988ZM24.0008 43.9988C22.8974 43.9988 22.0004 43.1018 22.0004 42.0004C22.0004 40.897 22.8974 40 24.0008 40C25.1022 40 25.9992 40.897 25.9992 42.0004C25.9992 43.1018 25.1022 43.9988 24.0008 43.9988ZM24.5853 28.9988L29.0008 33.4143V40.9992H27.8723C27.8376 40.8642 27.7836 40.7349 27.7353 40.6037C27.7103 40.5401 27.6948 40.4745 27.6678 40.4108C27.5714 40.1909 27.4595 39.9807 27.3264 39.7839C27.2975 39.7396 27.2608 39.701 27.228 39.6585C27.12 39.5081 27.0042 39.3634 26.875 39.2303C26.8152 39.1686 26.7515 39.1165 26.6898 39.0586C26.5741 38.9544 26.4583 38.8541 26.331 38.7635C26.2577 38.7095 26.1806 38.6593 26.1034 38.6111C25.9742 38.532 25.841 38.4587 25.7022 38.3931C25.6192 38.3545 25.5382 38.3159 25.4533 38.2812C25.299 38.2214 25.1408 38.1751 24.9807 38.1346C24.9016 38.1153 24.8283 38.0902 24.7492 38.0748C24.5062 38.0285 24.2573 37.9996 24.0008 37.9996C23.7423 37.9996 23.4934 38.0285 23.2504 38.0748C23.1713 38.0902 23.0961 38.1173 23.0189 38.1365C22.8569 38.1771 22.6987 38.2233 22.5463 38.2831C22.4614 38.3159 22.3804 38.3565 22.2975 38.395C22.1586 38.4606 22.0255 38.532 21.8962 38.613C21.8171 38.6612 21.7419 38.7095 21.6686 38.7635C21.5413 38.8541 21.4236 38.9544 21.3098 39.0605C21.2461 39.1165 21.1825 39.1705 21.1246 39.2303C20.9954 39.3653 20.8796 39.5081 20.7697 39.6605C20.7388 39.7029 20.7022 39.7415 20.6713 39.7839C20.5401 39.9826 20.4263 40.1929 20.3318 40.4128C20.3048 40.4745 20.2874 40.542 20.2643 40.6057C20.2141 40.7349 20.1601 40.8642 20.1254 41.0011H11.8711C11.8364 40.8642 11.7824 40.7369 11.7342 40.6057C11.7091 40.542 11.6937 40.4764 11.6667 40.4128C11.5702 40.1929 11.4583 39.9807 11.3252 39.7839C11.2963 39.7415 11.2596 39.7029 11.2288 39.6605C11.1188 39.5081 11.0031 39.3653 10.8738 39.2303C10.814 39.1705 10.7504 39.1165 10.6887 39.0605C10.5729 38.9544 10.4572 38.8541 10.3299 38.7635C10.2566 38.7095 10.1794 38.6612 10.1022 38.613C9.97299 38.532 9.83989 38.4606 9.701 38.395C9.61806 38.3565 9.53704 38.3159 9.45216 38.2831C9.29977 38.2233 9.13966 38.1771 8.97955 38.1365C8.90046 38.1153 8.82716 38.0902 8.74807 38.0748C8.50502 38.0285 8.25617 37.9996 7.99961 37.9996C7.74306 37.9996 7.49421 38.0285 7.24923 38.0748C7.17014 38.0902 7.09491 38.1173 7.01968 38.1365C6.85764 38.1771 6.69946 38.2233 6.54514 38.2831C6.46026 38.3159 6.37924 38.3565 6.2963 38.395C6.15934 38.4606 6.02431 38.532 5.89506 38.613C5.8179 38.6612 5.74267 38.7095 5.66744 38.7635C5.54205 38.8541 5.42438 38.9544 5.30864 39.0605C5.24691 39.1165 5.18326 39.1705 5.12346 39.2303C4.99421 39.3653 4.87847 39.5081 4.77045 39.6605C4.73958 39.7029 4.701 39.7415 4.67207 39.7839C4.53897 39.9826 4.42515 40.1929 4.33063 40.4128C4.30363 40.4745 4.28819 40.542 4.26312 40.6057C4.21682 40.7349 4.16281 40.8642 4.12616 40.9992H2.00039V35.9992H19.0008C19.5525 35.9992 20 35.5517 20 35V28.9988H24.5853ZM2.00039 22.9996H17.9996V33.9988H2.00039V22.9996Z" fill="white"/>
</g>
</g>
</g>
<g id="Clip path group_3">
<mask id="mask2_1_255" style="mask-type:luminance" maskUnits="userSpaceOnUse" x="27" y="0" width="34" height="28">
<g id="90338b1a98">
<path id="Vector_5" d="M27.7033 0H60.0008V27.0968H27.7033V0Z" fill="white"/>
</g>
</mask>
<g mask="url(#mask2_1_255)">
<g id="Group_3">
<path id="Vector_6" d="M59.0015 0H53.0004C52.4467 0 52.0011 0.44753 52.0011 0.999228V12.446L46 16.196V12.9996C46 12.637 45.8032 12.3013 45.4849 12.1238C45.1686 11.9502 44.7789 11.9579 44.4703 12.1508L38.0004 16.196V12.9996C38.0004 12.637 37.8036 12.3013 37.4853 12.1238C37.167 11.9502 36.7793 11.9579 36.4687 12.1508L28.4691 17.1508C28.1778 17.3341 28.0004 17.6543 28.0004 17.9996V25.9992C28.0004 26.5528 28.4479 27.0004 29.0015 27.0004H59.0015C59.5532 27.0004 60.0007 26.5528 60.0007 25.9992V0.999228C60.0007 0.44753 59.5532 0 59.0015 0ZM54.0015 2.00038H58.0004V15H54.0015V2.00038ZM30.0007 18.5552L36 14.8052V25H30.0007V18.5552ZM38.0004 18.5552L44.0015 14.8052V25H38.0004V18.5552ZM46 18.5552L52.0011 14.8052V25H46V18.5552ZM58.0004 25H54.0015V17.0004H58.0004V25Z" fill="white"/>
</g>
</g>
</g>
<path id="Vector_7" d="M40 20H42.0004V22.9996H40V20Z" fill="white"/>
<path id="Vector_8" d="M47.999 20H49.9994V22.9996H47.999V20Z" fill="white"/>
<path id="Vector_9" d="M32.001 20H34.0014V22.9996H32.001V20Z" fill="white"/>
<path id="Vector_10" d="M53.3164 34.7068L55.2589 35.1813C55.4229 34.5139 55.5598 33.8271 55.6698 33.1443L53.6945 32.826C53.5961 33.4568 53.4669 34.0914 53.3164 34.7068Z" fill="white"/>
<path id="Vector_11" d="M55.9994 28.9988H54.001C54.001 29.6431 53.9759 30.2893 53.9238 30.9182L55.9184 31.0783C55.9724 30.3954 55.9994 29.6952 55.9994 28.9988Z" fill="white"/>
<path id="Vector_12" d="M50.3379 41.7477L52.0316 42.8125C52.4 42.2261 52.7492 41.6204 53.0655 41.0069L51.2928 40.0829C50.9995 40.6481 50.6793 41.2076 50.3379 41.7477Z" fill="white"/>
<path id="Vector_13" d="M52.1104 38.3468L53.9526 39.1261C54.2207 38.4915 54.4676 37.8376 54.6856 37.1798L52.7874 36.5509C52.5868 37.1566 52.3573 37.7604 52.1104 38.3468Z" fill="white"/>
<path id="Vector_14" d="M14.2596 11.8808L12.9459 10.3743C12.4251 10.8295 11.9158 11.3079 11.4336 11.7979L12.863 13.1983C13.3067 12.745 13.7754 12.3033 14.2596 11.8808Z" fill="white"/>
<path id="Vector_15" d="M40.2314 6.08992C39.591 5.81793 38.937 5.56716 38.287 5.34918L37.6504 7.2454C38.2522 7.44602 38.8541 7.6775 39.4424 7.92827L40.2314 6.08992Z" fill="white"/>
<path id="Vector_16" d="M16.29 7.9032C15.7055 8.26585 15.1268 8.65937 14.5674 9.07218L15.7557 10.681C16.2707 10.299 16.805 9.93638 17.3432 9.60266L16.29 7.9032Z" fill="white"/>
<path id="Vector_17" d="M6.64551 18.559L8.44142 19.4425C8.72691 18.8599 9.03555 18.2928 9.35577 17.7546L7.63702 16.7303C7.2898 17.3128 6.95608 17.9282 6.64551 18.559Z" fill="white"/>
<path id="Vector_18" d="M8.76953 14.9865L10.4034 16.142C10.768 15.625 11.1615 15.1138 11.5743 14.62L10.0388 13.3391C9.59129 13.8754 9.16498 14.429 8.76953 14.9865Z" fill="white"/>
<path id="Vector_19" d="M30.1141 3.99884L30.1045 5.99923C30.7488 6.00308 31.3931 6.03009 32.0239 6.0841L32.1917 4.09143C31.5088 4.03356 30.8105 4.0027 30.1141 3.99884Z" fill="white"/>
<path id="Vector_20" d="M34.2537 4.34607L33.9277 6.31945C34.5624 6.42554 35.1951 6.55479 35.8066 6.70911L36.2908 4.76852C35.6253 4.6007 34.9405 4.45988 34.2537 4.34607Z" fill="white"/>
<path id="Vector_21" d="M42.1084 6.98492L41.1748 8.75576C41.7342 9.0509 42.2936 9.37497 42.8357 9.71833L43.9063 8.03045C43.3199 7.65622 42.7142 7.30707 42.1084 6.98492Z" fill="white"/>
<path id="Vector_22" d="M28.0367 4.07214C27.3442 4.12423 26.6478 4.20525 25.9727 4.30941L26.2794 6.28472C26.9044 6.18827 27.5467 6.11497 28.1872 6.06481L28.0367 4.07214Z" fill="white"/>
<path id="Vector_23" d="M20.75 7.84722L19.9803 6.00116C19.3438 6.26736 18.7111 6.5625 18.0957 6.87886L19.012 8.65741C19.5791 8.3642 20.1655 8.09221 20.75 7.84722Z" fill="white"/>
<path id="Vector_24" d="M23.931 4.71259C23.2617 4.87076 22.5884 5.06174 21.9287 5.27586L22.5499 7.17593C23.1575 6.97917 23.7786 6.8017 24.394 6.6551L23.931 4.71259Z" fill="white"/>
<path id="Vector_25" d="M20.8701 52.471L20.1641 54.3421C20.8122 54.5852 21.4777 54.807 22.1413 54.9961L22.6911 53.0729C22.0815 52.8973 21.4681 52.6948 20.8701 52.471Z" fill="white"/>
<path id="Vector_26" d="M17.4035 50.8333L16.4062 52.5675C17.0081 52.9128 17.6292 53.2349 18.2504 53.5301L19.1049 51.7207C18.5301 51.4487 17.9572 51.1516 17.4035 50.8333Z" fill="white"/>
<path id="Vector_27" d="M24.5566 53.5281L24.1631 55.488C24.8421 55.625 25.5327 55.7369 26.2156 55.8179L26.4528 53.8329C25.824 53.7577 25.1855 53.6555 24.5566 53.5281Z" fill="white"/>
<path id="Vector_28" d="M11.7327 46.3194L10.2666 47.6793C10.637 48.0787 11.0208 48.4683 11.4163 48.8445L12.7955 47.3958C12.431 47.0486 12.076 46.6878 11.7327 46.3194Z" fill="white"/>
<path id="Vector_29" d="M14.2382 48.6631L12.9805 50.2179C13.5206 50.6558 14.0819 51.0744 14.6452 51.4602L15.7775 49.8128C15.2567 49.454 14.7378 49.0682 14.2382 48.6631Z" fill="white"/>
</g>
</svg>
